<?xml version="1.0" encoding="utf-8"?>
<?xml-stylesheet type="text/xsl" href="rss1.xsl"?>
<rss version="2.0" xmlns:atom="http://www.w3.org/2005/Atom" xmlns:content="http://purl.org/rss/1.0/modules/content/" xmlns:dc="http://purl.org/dc/elements/1.1/" xmlns:media="http://search.yahoo.com/mrss/">
<channel>
 <title>Getty</title>
 <link>http://www.gettyimg.com/</link>
 <atom:link href="http://www.gettyimg.com/" rel="self" type="application/rss+xml" />

 
                <item>
                <title><![CDATA[【HD Live Performances】HDTV - Alicia Keys &amp; Maleah Joi Moon - Interview + Kaleidoscope (The Tonight Show Starring Jimmy Fallon) (2024/3/22)]]></title>
                <link><![CDATA[https://sharemania.us/threads/alicia-keys-maleah-joi-moon-interview-kaleidoscope-the-tonight-show-starring-jimmy-fallon-2024-3-22.243791/]]></link>
                <description><![CDATA[<article>
<blockquote class="messageText SelectQuoteContainer ugc baseHtml">
<iframe data-s9e-mediaembed="imgur" allowfullscreen="" loading="lazy" onload="var c=new MessageChannel;c.port1.onmessage=function(e){var d=e.data.split(' ');style.height=d[0]+'px';style.width=d[1]+'px'};contentWindow.postMessage('s9e:init','https://s9e.github.io',[c.port2])" scrolling="no" style="border: 0px; height: 456px; max-width: 100%; width: 540px;" src="https://s9e.github.io/iframe/2/imgur.min.html#XDjmTEk"></iframe><br>
<br>
<div class="bbCodeBlock bbCodeVfcHH HiddenContent">
<div class="attribution type">Hidden Content:</div>
<blockquote>You must reply before you can see the hidden data contained here.</blockquote>
</div>
<div class="messageTextEndMarker">&nbsp;</div>
</blockquote>
</article>]]></description>
                <author><![CDATA[Mr.Man]]></author>
                </item>

                
                <item>
                <title><![CDATA[【Cinema Center】MOVIE - Disenchanted.2022.1080p.DSNP.WEB-DL.DDP5.1.Atmos.H.264-Samuel]]></title>
                <link><![CDATA[https://sharemania.us/threads/disenchanted-2022-1080p-dsnp-web-dl-ddp5-1-atmos-h-264-samuel.243792/]]></link>
                <description><![CDATA[<article>
<blockquote class="messageText SelectQuoteContainer ugc baseHtml">
<div style="text-align: center"><b><span style="font-size: 26px">Disenchanted</span></b><br>
<img src="https://i.imgur.com/7Tk1L23.jpeg" class="bbCodeImage LbImage" alt="[​IMG]" data-url="https://i.imgur.com/7Tk1L23.jpeg" style=""><br>
<b><a href="https://i.imgur.com/IElysTA.jpeg" target="_blank" class="externalLink" rel="nofollow">Alternate Artwork 1</a></b> | <b><a href="https://i.imgur.com/bDAzNMH.jpeg" target="_blank" class="externalLink" rel="nofollow">Alternate Artwork 2</a></b> | <b><a href="https://i.imgur.com/98sfkpO.jpeg" target="_blank" class="externalLink" rel="nofollow">Alternate Artwork 3</a></b> | <b><a href="https://i.imgur.com/qbQkbwc.png" target="_blank" class="externalLink" rel="nofollow">Alternate Artwork 4</a></b> | <b><a href="https://i.imgur.com/OcdZati.jpeg" target="_blank" class="externalLink" rel="nofollow">Alternate Artwork 5</a></b> | <b><a href="https://i.imgur.com/nElPVFy.jpeg" target="_blank" class="externalLink" rel="nofollow">Alternate Artwork 6</a></b> | <b><a href="https://i.imgur.com/fqmk8So.jpeg" target="_blank" class="externalLink" rel="nofollow">Alternate Artwork 7</a></b> | <b><a href="https://i.imgur.com/jaHsbuA.jpeg" target="_blank" class="externalLink" rel="nofollow">Alternate Artwork 8</a></b> | <b><a href="https://i.imgur.com/3c8aXLI.jpeg" target="_blank" class="externalLink" rel="nofollow">Alternate Artwork 9</a></b> | <b><a href="https://i.imgur.com/5zdRmDu.jpeg" target="_blank" class="externalLink" rel="nofollow">Alternate Artwork 10</a></b> | <b><a href="https://i.imgur.com/8RHUqm2.jpeg" target="_blank" class="externalLink" rel="nofollow">Header 1</a></b> | <b><a href="https://i.imgur.com/AYJNx9d.jpeg" target="_blank" class="externalLink" rel="nofollow">Header 2</a></b> | <b><a href="https://i.imgur.com/5mEXYzW.jpeg" target="_blank" class="externalLink" rel="nofollow">Header 3</a></b> | <b><a href="https://i.imgur.com/RDGU6KE.jpeg" target="_blank" class="externalLink" rel="nofollow">Header 4</a></b> | <b><a href="https://i.imgur.com/AOiPOW7.jpeg" target="_blank" class="externalLink" rel="nofollow">Poster 1</a></b> | <b><a href="https://i.imgur.com/tQBoMTZ.jpeg" target="_blank" class="externalLink" rel="nofollow">Poster 2</a></b> | <b><a href="https://i.imgur.com/Gna5qPb.jpeg" target="_blank" class="externalLink" rel="nofollow">Poster 3</a></b> | <b><a href="https://i.imgur.com/cgCL0VC.jpeg" target="_blank" class="externalLink" rel="nofollow">Poster 4</a></b> | <b><a href="https://i.imgur.com/mEZhLlC.jpeg" target="_blank" class="externalLink" rel="nofollow">Poster 5</a></b> | <b><a href="https://i.imgur.com/78Yrfm6.jpeg" target="_blank" class="externalLink" rel="nofollow">Thumbnail 1</a></b> | <b><a href="https://i.imgur.com/VZs1bTm.jpeg" target="_blank" class="externalLink" rel="nofollow">Thumbnail 2</a></b> | <b><a href="https://i.imgur.com/vOSc44k.jpeg" target="_blank" class="externalLink" rel="nofollow">Key Art</a></b><br>
<br>
<img src="https://i.imgur.com/qhRKRmw.png" class="bbCodeImage LbImage" alt="[​IMG]" data-url="https://i.imgur.com/qhRKRmw.png" style=""> <img src="https://i.imgur.com/ckHEWYh.png" class="bbCodeImage LbImage" alt="[​IMG]" data-url="https://i.imgur.com/ckHEWYh.png" style=""> <img src="https://i.imgur.com/YMzRyyQ.png" class="bbCodeImage LbImage" alt="[​IMG]" data-url="https://i.imgur.com/YMzRyyQ.png" style=""> <img src="https://i.imgur.com/p2a3QKq.png" class="bbCodeImage LbImage" alt="[​IMG]" data-url="https://i.imgur.com/p2a3QKq.png" style=""><br>
2022 • 2h 1m<br>
Family, Comedy, Fantasy, Musical<br>
<br>
<div class="bbCodeBlock bbCodeQuote">
<aside>
<blockquote class="quoteContainer"><div class="quote"><b><span style="font-size: 15px"><span style="font-family: 'Arial'">Description</span></span></b><br>
A live-action musical comedy, “Disenchanted” is a sequel to Disney’s box office hit “Enchanted” featuring the original cast from the heart-warming story of the lovable, hopelessly-romantic maiden, Giselle from the fairy tale world of Andalasia, who finally found her Prince Charming, divorce lawyer Robert Philip, in the kingdom of New York City.</div><div class="quoteExpand">Click to expand...</div></blockquote>
</aside>
</div>
<div class="bbCodeBlock bbCodeQuote">
<aside>
<blockquote class="quoteContainer"><div class="quote"><b><span style="font-size: 15px"><span style="font-family: 'Arial'">More Information</span></span></b><br>
<b>Long Description:</b><br>
It's been fifteen years since Giselle and Robert wed, but Giselle has grown disillusioned with life in the city. They decide to move their growing family to the sleepy suburban community of Monroeville in search of a more fairy tale life – unfortunately, it isn’t the quick fix she hoped for. Suburbia has a whole new set of rules and a local queen bee, Malvina Monroe, who makes Giselle feel more out of place than ever. Frustrated that her happily ever after hasn’t been easy to find, she turns to the magic of Andalasia for help, accidentally transforming the entire town into a real-life fairy tale, placing her family’s future happiness in jeopardy. Now, Giselle is in a race against time to reverse the spell and determine what happily ever after truly means to her and her family.<br>
<br>
<br>
<br>
Some flashing lights sequences or patterns may affect photosensitive viewers.<br>
<b>Duration:</b> 2h 1m<br>
<b>Release Date:</b> 2022<br>
<b>Genre:</b> Family, Comedy, Fantasy, Musical<br>
<b>Rating:</b> <img src="https://i.imgur.com/qhRKRmw.png" class="bbCodeImage LbImage" alt="[​IMG]" data-url="https://i.imgur.com/qhRKRmw.png" style=""><br>
<b>Available in the following formats:</b> <img src="https://i.imgur.com/ckHEWYh.png" class="bbCodeImage LbImage" alt="[​IMG]" data-url="https://i.imgur.com/ckHEWYh.png" style=""> <img src="https://i.imgur.com/ZfL5Qvq.png" class="bbCodeImage LbImage" alt="[​IMG]" data-url="https://i.imgur.com/ZfL5Qvq.png" style=""> <img src="https://i.imgur.com/gx1o7rO.png" class="bbCodeImage LbImage" alt="[​IMG]" data-url="https://i.imgur.com/gx1o7rO.png" style=""> <img src="https://i.imgur.com/YMzRyyQ.png" class="bbCodeImage LbImage" alt="[​IMG]" data-url="https://i.imgur.com/YMzRyyQ.png" style=""> <img src="https://i.imgur.com/p2a3QKq.png" class="bbCodeImage LbImage" alt="[​IMG]" data-url="https://i.imgur.com/p2a3QKq.png" style=""><br>
<b>Director:</b> Adam Shankman<br>
<b>Starring:</b> Amy Adams, Patrick Dempsey, Maya Rudolph, Yvette Nicole Brown, Jayma Mays, Gabriella Baldacchino</div><div class="quoteExpand quoteCut">Click to expand...</div></blockquote>
</aside>
</div>
<div class="bbCodeBlock bbCodeQuote">
<aside>
<blockquote class="quoteContainer"><div class="quote"><b><span style="font-size: 15px">Source</span></b><br>
<img src="https://i.imgur.com/I198e8q.png" class="bbCodeImage LbImage" alt="[​IMG]" data-url="https://i.imgur.com/I198e8q.png" style=""></div><div class="quoteExpand">Click to expand...</div></blockquote>
</aside>
</div>
<div class="bbCodeBlock bbCodeQuote">
<aside>
<blockquote class="quoteContainer"><div class="quote"><b><span style="font-size: 15px">Release Name</span></b><br>
Disenchanted.2022.1080p.DSNP.WEB-DL.DDP5.1.Atmos.H.264-Samuel</div><div class="quoteExpand">Click to expand...</div></blockquote>
</aside>
</div>
<div class="ToggleTriggerAnchor bbCodeSpoilerContainer">
<button type="button" class="button bbCodeSpoilerButton ToggleTrigger Tooltip JsOnly" data-target="> .SpoilerTarget"><span>Spoiler: <span class="SpoilerTitle">Media Information</span></span></button>
<div class="SpoilerTarget bbCodeSpoilerText">General<br>
Complete name : Disenchanted.2022.1080p.DSNP.WEB-DL.DDP5.1.Atmos.H.264-Samuel.mkv<br>
Format : Matroska<br>
Format version : Version 4<br>
File size : 11.5 GiB<br>
Duration : 1 h 58 min<br>
Overall bit rate mode : Variable<br>
Overall bit rate : 13.9 Mb/s<br>
Frame rate : 24.000 FPS<br>
Encoded date : 2024-05-01 09:15:38 UTC<br>
Writing application : mkvmerge v83.0 ('Circle Of Friends') 64-bit<br>
Writing library : libebml v1.4.5 + libmatroska v1.7.1<br>
<br>
Video<br>
ID : 1<br>
Format : AVC<br>
Format/Info : Advanced Video Codec<br>
Format profile : High@L4<br>
Format settings : CABAC / 4 Ref Frames<br>
Format settings, CABAC : Yes<br>
Format settings, Reference frames : 4 frames<br>
Codec ID : V_MPEG4/ISO/AVC<br>
Duration : 1 h 58 min<br>
Bit rate mode : Variable<br>
Bit rate : 6 612 kb/s<br>
Maximum bit rate : 12.7 Mb/s<br>
Width : 1 920 pixels<br>
Height : 1 080 pixels<br>
Display aspect ratio : 16:9<br>
Frame rate mode : Constant<br>
Frame rate : 24.000 FPS<br>
Color space : YUV<br>
Chroma subsampling : 4:2:0<br>
Bit depth : 8 bits<br>
Scan type : Progressive<br>
Bits/(Pixel*Frame) : 0.133<br>
Time code of first frame : 00:00:00;00<br>
Stream size : 5.46 GiB (48%)<br>
Default : Yes<br>
Forced : No<br>
Color range : Limited<br>
Color primaries : BT.709<br>
Transfer characteristics : BT.709<br>
Matrix coefficients : BT.709<br>
<br>
Audio #1<br>
ID : 2<br>
Format : E-AC-3 JOC<br>
Format/Info : Enhanced AC-3 with Joint Object Coding<br>
Commercial name : Dolby Digital Plus with Dolby Atmos<br>
Codec ID : A_EAC3<br>
Duration : 1 h 58 min<br>
Bit rate mode : Constant<br>
Bit rate : 768 kb/s<br>
Channel(s) : 6 channels<br>
Channel layout : L R C LFE Ls Rs<br>
Sampling rate : 48.0 kHz<br>
Frame rate : 31.250 FPS (1536 SPF)<br>
Compression mode : Lossy<br>
Stream size : 650 MiB (6%)<br>
Language : English<br>
Service kind : Complete Main<br>
Default : Yes<br>
Forced : No<br>
Complexity index : 16<br>
Number of dynamic objects : 15<br>
Bed channel count : 1 channel<br>
Bed channel configuration : LFE<br>
Dialog Normalization : -27 dB<br>
compr : -0.28 dB<br>
dmixmod : Lo/Ro<br>
ltrtcmixlev : -3.0 dB<br>
ltrtsurmixlev : -4.5 dB<br>
lorocmixlev : -3.0 dB<br>
lorosurmixlev : -4.5 dB<br>
dialnorm_Average : -27 dB<br>
dialnorm_Minimum : -27 dB<br>
dialnorm_Maximum : -27 dB<br>
<br>
Audio #2<br>
ID : 3<br>
Format : AAC LC<br>
Format/Info : Advanced Audio Codec Low Complexity<br>
Codec ID : A_AAC-2<br>
Duration : 1 h 58 min<br>
Bit rate : 125 kb/s<br>
Channel(s) : 2 channels<br>
Channel layout : L R<br>
Sampling rate : 48.0 kHz<br>
Frame rate : 46.875 FPS (1024 SPF)<br>
Compression mode : Lossy<br>
Stream size : 106 MiB (1%)<br>
Title : Audio Description<br>
Language : English<br>
Default : No<br>
Forced : No<br>
<br>
Audio #3<br>
ID : 4<br>
Format : E-AC-3<br>
Format/Info : Enhanced AC-3<br>
Commercial name : Dolby Digital Plus<br>
Codec ID : A_EAC3<br>
Duration : 1 h 58 min<br>
Bit rate mode : Constant<br>
Bit rate : 256 kb/s<br>
Channel(s) : 6 channels<br>
Channel layout : L R C LFE Ls Rs<br>
Sampling rate : 48.0 kHz<br>
Frame rate : 31.250 FPS (1536 SPF)<br>
Compression mode : Lossy<br>
Stream size : 217 MiB (2%)<br>
Title : Mandarin<br>
Language : Chinese<br>
Service kind : Complete Main<br>
Default : No<br>
Forced : No<br>
Dialog Normalization : -27 dB<br>
compr : -0.28 dB<br>
mixlevel : 105 dB<br>
roomtyp : Small<br>
dialnorm_Average : -27 dB<br>
dialnorm_Minimum : -27 dB<br>
dialnorm_Maximum : -27 dB<br>
<br>
Audio #4<br>
ID : 5<br>
Format : E-AC-3<br>
Format/Info : Enhanced AC-3<br>
Commercial name : Dolby Digital Plus<br>
Codec ID : A_EAC3<br>
Duration : 1 h 58 min<br>
Bit rate mode : Constant<br>
Bit rate : 256 kb/s<br>
Channel(s) : 6 channels<br>
Channel layout : L R C LFE Ls Rs<br>
Sampling rate : 48.0 kHz<br>
Frame rate : 31.250 FPS (1536 SPF)<br>
Compression mode : Lossy<br>
Stream size : 217 MiB (2%)<br>
Language : Czech<br>
Service kind : Complete Main<br>
Default : No<br>
Forced : No<br>
Dialog Normalization : -27 dB<br>
compr : -0.28 dB<br>
mixlevel : 105 dB<br>
roomtyp : Small<br>
dialnorm_Average : -27 dB<br>
dialnorm_Minimum : -27 dB<br>
dialnorm_Maximum : -27 dB<br>
<br>
Audio #5<br>
ID : 6<br>
Format : E-AC-3<br>
Format/Info : Enhanced AC-3<br>
Commercial name : Dolby Digital Plus<br>
Codec ID : A_EAC3<br>
Duration : 1 h 58 min<br>
Bit rate mode : Constant<br>
Bit rate : 256 kb/s<br>
Channel(s) : 6 channels<br>
Channel layout : L R C LFE Ls Rs<br>
Sampling rate : 48.0 kHz<br>
Frame rate : 31.250 FPS (1536 SPF)<br>
Compression mode : Lossy<br>
Stream size : 217 MiB (2%)<br>
Language : Danish<br>
Service kind : Complete Main<br>
Default : No<br>
Forced : No<br>
Dialog Normalization : -27 dB<br>
compr : -0.28 dB<br>
mixlevel : 105 dB<br>
roomtyp : Small<br>
dialnorm_Average : -27 dB<br>
dialnorm_Minimum : -27 dB<br>
dialnorm_Maximum : -27 dB<br>
<br>
Audio #6<br>
ID : 7<br>
Format : E-AC-3<br>
Format/Info : Enhanced AC-3<br>
Commercial name : Dolby Digital Plus<br>
Codec ID : A_EAC3<br>
Duration : 1 h 58 min<br>
Bit rate mode : Constant<br>
Bit rate : 256 kb/s<br>
Channel(s) : 6 channels<br>
Channel layout : L R C LFE Ls Rs<br>
Sampling rate : 48.0 kHz<br>
Frame rate : 31.250 FPS (1536 SPF)<br>
Compression mode : Lossy<br>
Stream size : 217 MiB (2%)<br>
Language : German<br>
Service kind : Complete Main<br>
Default : No<br>
Forced : No<br>
Dialog Normalization : -27 dB<br>
compr : -0.28 dB<br>
mixlevel : 105 dB<br>
roomtyp : Small<br>
dialnorm_Average : -27 dB<br>
dialnorm_Minimum : -27 dB<br>
dialnorm_Maximum : -27 dB<br>
<br>
Audio #7<br>
ID : 8<br>
Format : E-AC-3<br>
Format/Info : Enhanced AC-3<br>
Commercial name : Dolby Digital Plus<br>
Codec ID : A_EAC3<br>
Duration : 1 h 58 min<br>
Bit rate mode : Constant<br>
Bit rate : 256 kb/s<br>
Channel(s) : 6 channels<br>
Channel layout : L R C LFE Ls Rs<br>
Sampling rate : 48.0 kHz<br>
Frame rate : 31.250 FPS (1536 SPF)<br>
Compression mode : Lossy<br>
Stream size : 217 MiB (2%)<br>
Language : Greek<br>
Service kind : Complete Main<br>
Default : No<br>
Forced : No<br>
Dialog Normalization : -27 dB<br>
compr : -0.28 dB<br>
mixlevel : 105 dB<br>
roomtyp : Small<br>
dialnorm_Average : -27 dB<br>
dialnorm_Minimum : -27 dB<br>
dialnorm_Maximum : -27 dB<br>
<br>
Audio #8<br>
ID : 9<br>
Format : E-AC-3<br>
Format/Info : Enhanced AC-3<br>
Commercial name : Dolby Digital Plus<br>
Codec ID : A_EAC3<br>
Duration : 1 h 58 min<br>
Bit rate mode : Constant<br>
Bit rate : 256 kb/s<br>
Channel(s) : 6 channels<br>
Channel layout : L R C LFE Ls Rs<br>
Sampling rate : 48.0 kHz<br>
Frame rate : 31.250 FPS (1536 SPF)<br>
Compression mode : Lossy<br>
Stream size : 217 MiB (2%)<br>
Title : Latin American<br>
Language : Spanish<br>
Service kind : Complete Main<br>
Default : No<br>
Forced : No<br>
Dialog Normalization : -26 dB<br>
compr : -0.28 dB<br>
mixlevel : 105 dB<br>
roomtyp : Small<br>
dialnorm_Average : -26 dB<br>
dialnorm_Minimum : -26 dB<br>
dialnorm_Maximum : -26 dB<br>
<br>
Audio #9<br>
ID : 10<br>
Format : E-AC-3<br>
Format/Info : Enhanced AC-3<br>
Commercial name : Dolby Digital Plus<br>
Codec ID : A_EAC3<br>
Duration : 1 h 58 min<br>
Bit rate mode : Constant<br>
Bit rate : 256 kb/s<br>
Channel(s) : 6 channels<br>
Channel layout : L R C LFE Ls Rs<br>
Sampling rate : 48.0 kHz<br>
Frame rate : 31.250 FPS (1536 SPF)<br>
Compression mode : Lossy<br>
Stream size : 217 MiB (2%)<br>
Title : European<br>
Language : Spanish<br>
Service kind : Complete Main<br>
Default : No<br>
Forced : No<br>
Dialog Normalization : -27 dB<br>
compr : -0.28 dB<br>
mixlevel : 105 dB<br>
roomtyp : Small<br>
dialnorm_Average : -27 dB<br>
dialnorm_Minimum : -27 dB<br>
dialnorm_Maximum : -27 dB<br>
<br>
Audio #10<br>
ID : 11<br>
Format : E-AC-3<br>
Format/Info : Enhanced AC-3<br>
Commercial name : Dolby Digital Plus<br>
Codec ID : A_EAC3<br>
Duration : 1 h 58 min<br>
Bit rate mode : Constant<br>
Bit rate : 256 kb/s<br>
Channel(s) : 6 channels<br>
Channel layout : L R C LFE Ls Rs<br>
Sampling rate : 48.0 kHz<br>
Frame rate : 31.250 FPS (1536 SPF)<br>
Compression mode : Lossy<br>
Stream size : 217 MiB (2%)<br>
Language : Finnish<br>
Service kind : Complete Main<br>
Default : No<br>
Forced : No<br>
Dialog Normalization : -27 dB<br>
compr : -0.28 dB<br>
mixlevel : 105 dB<br>
roomtyp : Small<br>
dialnorm_Average : -27 dB<br>
dialnorm_Minimum : -27 dB<br>
dialnorm_Maximum : -27 dB<br>
<br>
Audio #11<br>
ID : 12<br>
Format : E-AC-3<br>
Format/Info : Enhanced AC-3<br>
Commercial name : Dolby Digital Plus<br>
Codec ID : A_EAC3<br>
Duration : 1 h 58 min<br>
Bit rate mode : Constant<br>
Bit rate : 256 kb/s<br>
Channel(s) : 6 channels<br>
Channel layout : L R C LFE Ls Rs<br>
Sampling rate : 48.0 kHz<br>
Frame rate : 31.250 FPS (1536 SPF)<br>
Compression mode : Lossy<br>
Stream size : 217 MiB (2%)<br>
Title : Canadian<br>
Language : French<br>
Service kind : Complete Main<br>
Default : No<br>
Forced : No<br>
Dialog Normalization : -27 dB<br>
compr : -0.28 dB<br>
mixlevel : 105 dB<br>
roomtyp : Small<br>
dialnorm_Average : -27 dB<br>
dialnorm_Minimum : -27 dB<br>
dialnorm_Maximum : -27 dB<br>
<br>
Audio #12<br>
ID : 13<br>
Format : E-AC-3<br>
Format/Info : Enhanced AC-3<br>
Commercial name : Dolby Digital Plus<br>
Codec ID : A_EAC3<br>
Duration : 1 h 58 min<br>
Bit rate mode : Constant<br>
Bit rate : 256 kb/s<br>
Channel(s) : 6 channels<br>
Channel layout : L R C LFE Ls Rs<br>
Sampling rate : 48.0 kHz<br>
Frame rate : 31.250 FPS (1536 SPF)<br>
Compression mode : Lossy<br>
Stream size : 217 MiB (2%)<br>
Language : French<br>
Service kind : Complete Main<br>
Default : No<br>
Forced : No<br>
Dialog Normalization : -27 dB<br>
compr : -0.28 dB<br>
mixlevel : 105 dB<br>
roomtyp : Small<br>
dialnorm_Average : -27 dB<br>
dialnorm_Minimum : -27 dB<br>
dialnorm_Maximum : -27 dB<br>
<br>
Audio #13<br>
ID : 14<br>
Format : E-AC-3<br>
Format/Info : Enhanced AC-3<br>
Commercial name : Dolby Digital Plus<br>
Codec ID : A_EAC3<br>
Duration : 1 h 58 min<br>
Bit rate mode : Constant<br>
Bit rate : 256 kb/s<br>
Channel(s) : 6 channels<br>
Channel layout : L R C LFE Ls Rs<br>
Sampling rate : 48.0 kHz<br>
Frame rate : 31.250 FPS (1536 SPF)<br>
Compression mode : Lossy<br>
Stream size : 217 MiB (2%)<br>
Language : Hungarian<br>
Service kind : Complete Main<br>
Default : No<br>
Forced : No<br>
Dialog Normalization : -27 dB<br>
compr : -0.28 dB<br>
mixlevel : 105 dB<br>
roomtyp : Small<br>
dialnorm_Average : -27 dB<br>
dialnorm_Minimum : -27 dB<br>
dialnorm_Maximum : -27 dB<br>
<br>
Audio #14<br>
ID : 15<br>
Format : E-AC-3<br>
Format/Info : Enhanced AC-3<br>
Commercial name : Dolby Digital Plus<br>
Codec ID : A_EAC3<br>
Duration : 1 h 58 min<br>
Bit rate mode : Constant<br>
Bit rate : 256 kb/s<br>
Channel(s) : 6 channels<br>
Channel layout : L R C LFE Ls Rs<br>
Sampling rate : 48.0 kHz<br>
Frame rate : 31.250 FPS (1536 SPF)<br>
Compression mode : Lossy<br>
Stream size : 217 MiB (2%)<br>
Language : Italian<br>
Service kind : Complete Main<br>
Default : No<br>
Forced : No<br>
Dialog Normalization : -27 dB<br>
compr : -0.28 dB<br>
mixlevel : 105 dB<br>
roomtyp : Small<br>
dialnorm_Average : -27 dB<br>
dialnorm_Minimum : -27 dB<br>
dialnorm_Maximum : -27 dB<br>
<br>
Audio #15<br>
ID : 16<br>
Format : E-AC-3<br>
Format/Info : Enhanced AC-3<br>
Commercial name : Dolby Digital Plus<br>
Codec ID : A_EAC3<br>
Duration : 1 h 58 min<br>
Bit rate mode : Constant<br>
Bit rate : 256 kb/s<br>
Channel(s) : 6 channels<br>
Channel layout : L R C LFE Ls Rs<br>
Sampling rate : 48.0 kHz<br>
Frame rate : 31.250 FPS (1536 SPF)<br>
Compression mode : Lossy<br>
Stream size : 217 MiB (2%)<br>
Language : Japanese<br>
Service kind : Complete Main<br>
Default : No<br>
Forced : No<br>
Dialog Normalization : -27 dB<br>
compr : -0.28 dB<br>
mixlevel : 105 dB<br>
roomtyp : Small<br>
dialnorm_Average : -27 dB<br>
dialnorm_Minimum : -27 dB<br>
dialnorm_Maximum : -27 dB<br>
<br>
Audio #16<br>
ID : 17<br>
Format : E-AC-3<br>
Format/Info : Enhanced AC-3<br>
Commercial name : Dolby Digital Plus<br>
Codec ID : A_EAC3<br>
Duration : 1 h 58 min<br>
Bit rate mode : Constant<br>
Bit rate : 256 kb/s<br>
Channel(s) : 6 channels<br>
Channel layout : L R C LFE Ls Rs<br>
Sampling rate : 48.0 kHz<br>
Frame rate : 31.250 FPS (1536 SPF)<br>
Compression mode : Lossy<br>
Stream size : 217 MiB (2%)<br>
Language : Korean<br>
Service kind : Complete Main<br>
Default : No<br>
Forced : No<br>
Dialog Normalization : -27 dB<br>
compr : -0.28 dB<br>
mixlevel : 105 dB<br>
roomtyp : Small<br>
dialnorm_Average : -27 dB<br>
dialnorm_Minimum : -27 dB<br>
dialnorm_Maximum : -27 dB<br>
<br>
Audio #17<br>
ID : 18<br>
Format : E-AC-3<br>
Format/Info : Enhanced AC-3<br>
Commercial name : Dolby Digital Plus<br>
Codec ID : A_EAC3<br>
Duration : 1 h 58 min<br>
Bit rate mode : Constant<br>
Bit rate : 256 kb/s<br>
Channel(s) : 6 channels<br>
Channel layout : L R C LFE Ls Rs<br>
Sampling rate : 48.0 kHz<br>
Frame rate : 31.250 FPS (1536 SPF)<br>
Compression mode : Lossy<br>
Stream size : 217 MiB (2%)<br>
Language : Dutch<br>
Service kind : Complete Main<br>
Default : No<br>
Forced : No<br>
Dialog Normalization : -27 dB<br>
compr : -0.28 dB<br>
mixlevel : 105 dB<br>
roomtyp : Small<br>
dialnorm_Average : -27 dB<br>
dialnorm_Minimum : -27 dB<br>
dialnorm_Maximum : -27 dB<br>
<br>
Audio #18<br>
ID : 19<br>
Format : E-AC-3<br>
Format/Info : Enhanced AC-3<br>
Commercial name : Dolby Digital Plus<br>
Codec ID : A_EAC3<br>
Duration : 1 h 58 min<br>
Bit rate mode : Constant<br>
Bit rate : 256 kb/s<br>
Channel(s) : 6 channels<br>
Channel layout : L R C LFE Ls Rs<br>
Sampling rate : 48.0 kHz<br>
Frame rate : 31.250 FPS (1536 SPF)<br>
Compression mode : Lossy<br>
Stream size : 217 MiB (2%)<br>
Title : Belgian<br>
Language : Dutch<br>
Service kind : Complete Main<br>
Default : No<br>
Forced : No<br>
Dialog Normalization : -27 dB<br>
compr : -0.28 dB<br>
mixlevel : 105 dB<br>
roomtyp : Small<br>
dialnorm_Average : -27 dB<br>
dialnorm_Minimum : -27 dB<br>
dialnorm_Maximum : -27 dB<br>
<br>
Audio #19<br>
ID : 20<br>
Format : E-AC-3<br>
Format/Info : Enhanced AC-3<br>
Commercial name : Dolby Digital Plus<br>
Codec ID : A_EAC3<br>
Duration : 1 h 58 min<br>
Bit rate mode : Constant<br>
Bit rate : 256 kb/s<br>
Channel(s) : 6 channels<br>
Channel layout : L R C LFE Ls Rs<br>
Sampling rate : 48.0 kHz<br>
Frame rate : 31.250 FPS (1536 SPF)<br>
Compression mode : Lossy<br>
Stream size : 217 MiB (2%)<br>
Language : Norwegian<br>
Service kind : Complete Main<br>
Default : No<br>
Forced : No<br>
Dialog Normalization : -27 dB<br>
compr : -0.28 dB<br>
mixlevel : 105 dB<br>
roomtyp : Small<br>
dialnorm_Average : -27 dB<br>
dialnorm_Minimum : -27 dB<br>
dialnorm_Maximum : -27 dB<br>
<br>
Audio #20<br>
ID : 21<br>
Format : E-AC-3<br>
Format/Info : Enhanced AC-3<br>
Commercial name : Dolby Digital Plus<br>
Codec ID : A_EAC3<br>
Duration : 1 h 58 min<br>
Bit rate mode : Constant<br>
Bit rate : 256 kb/s<br>
Channel(s) : 6 channels<br>
Channel layout : L R C LFE Ls Rs<br>
Sampling rate : 48.0 kHz<br>
Frame rate : 31.250 FPS (1536 SPF)<br>
Compression mode : Lossy<br>
Stream size : 217 MiB (2%)<br>
Language : Polish<br>
Service kind : Complete Main<br>
Default : No<br>
Forced : No<br>
Dialog Normalization : -27 dB<br>
compr : -0.28 dB<br>
mixlevel : 105 dB<br>
roomtyp : Small<br>
dialnorm_Average : -27 dB<br>
dialnorm_Minimum : -27 dB<br>
dialnorm_Maximum : -27 dB<br>
<br>
Audio #21<br>
ID : 22<br>
Format : E-AC-3<br>
Format/Info : Enhanced AC-3<br>
Commercial name : Dolby Digital Plus<br>
Codec ID : A_EAC3<br>
Duration : 1 h 58 min<br>
Bit rate mode : Constant<br>
Bit rate : 256 kb/s<br>
Channel(s) : 6 channels<br>
Channel layout : L R C LFE Ls Rs<br>
Sampling rate : 48.0 kHz<br>
Frame rate : 31.250 FPS (1536 SPF)<br>
Compression mode : Lossy<br>
Stream size : 217 MiB (2%)<br>
Title : Brazilian<br>
Language : Portuguese<br>
Service kind : Complete Main<br>
Default : No<br>
Forced : No<br>
Dialog Normalization : -31 dB<br>
compr : -0.28 dB<br>
mixlevel : 105 dB<br>
roomtyp : Small<br>
dialnorm_Average : -31 dB<br>
dialnorm_Minimum : -31 dB<br>
dialnorm_Maximum : -31 dB<br>
<br>
Audio #22<br>
ID : 23<br>
Format : E-AC-3<br>
Format/Info : Enhanced AC-3<br>
Commercial name : Dolby Digital Plus<br>
Codec ID : A_EAC3<br>
Duration : 1 h 58 min<br>
Bit rate mode : Constant<br>
Bit rate : 256 kb/s<br>
Channel(s) : 6 channels<br>
Channel layout : L R C LFE Ls Rs<br>
Sampling rate : 48.0 kHz<br>
Frame rate : 31.250 FPS (1536 SPF)<br>
Compression mode : Lossy<br>
Stream size : 217 MiB (2%)<br>
Title : European<br>
Language : Portuguese<br>
Service kind : Complete Main<br>
Default : No<br>
Forced : No<br>
Dialog Normalization : -27 dB<br>
compr : -0.28 dB<br>
mixlevel : 105 dB<br>
roomtyp : Small<br>
dialnorm_Average : -27 dB<br>
dialnorm_Minimum : -27 dB<br>
dialnorm_Maximum : -27 dB<br>
<br>
Audio #23<br>
ID : 24<br>
Format : E-AC-3<br>
Format/Info : Enhanced AC-3<br>
Commercial name : Dolby Digital Plus<br>
Codec ID : A_EAC3<br>
Duration : 1 h 58 min<br>
Bit rate mode : Constant<br>
Bit rate : 256 kb/s<br>
Channel(s) : 6 channels<br>
Channel layout : L R C LFE Ls Rs<br>
Sampling rate : 48.0 kHz<br>
Frame rate : 31.250 FPS (1536 SPF)<br>
Compression mode : Lossy<br>
Stream size : 217 MiB (2%)<br>
Language : Romanian<br>
Service kind : Complete Main<br>
Default : No<br>
Forced : No<br>
Dialog Normalization : -26 dB<br>
compr : -0.28 dB<br>
mixlevel : 105 dB<br>
roomtyp : Small<br>
dialnorm_Average : -26 dB<br>
dialnorm_Minimum : -26 dB<br>
dialnorm_Maximum : -26 dB<br>
<br>
Audio #24<br>
ID : 25<br>
Format : E-AC-3<br>
Format/Info : Enhanced AC-3<br>
Commercial name : Dolby Digital Plus<br>
Codec ID : A_EAC3<br>
Duration : 1 h 58 min<br>
Bit rate mode : Constant<br>
Bit rate : 256 kb/s<br>
Channel(s) : 6 channels<br>
Channel layout : L R C LFE Ls Rs<br>
Sampling rate : 48.0 kHz<br>
Frame rate : 31.250 FPS (1536 SPF)<br>
Compression mode : Lossy<br>
Stream size : 217 MiB (2%)<br>
Language : Slovak<br>
Service kind : Complete Main<br>
Default : No<br>
Forced : No<br>
Dialog Normalization : -27 dB<br>
compr : -0.28 dB<br>
mixlevel : 105 dB<br>
roomtyp : Small<br>
dialnorm_Average : -27 dB<br>
dialnorm_Minimum : -27 dB<br>
dialnorm_Maximum : -27 dB<br>
<br>
Audio #25<br>
ID : 26<br>
Format : E-AC-3<br>
Format/Info : Enhanced AC-3<br>
Commercial name : Dolby Digital Plus<br>
Codec ID : A_EAC3<br>
Duration : 1 h 58 min<br>
Bit rate mode : Constant<br>
Bit rate : 256 kb/s<br>
Channel(s) : 6 channels<br>
Channel layout : L R C LFE Ls Rs<br>
Sampling rate : 48.0 kHz<br>
Frame rate : 31.250 FPS (1536 SPF)<br>
Compression mode : Lossy<br>
Stream size : 217 MiB (2%)<br>
Language : Swedish<br>
Service kind : Complete Main<br>
Default : No<br>
Forced : No<br>
Dialog Normalization : -27 dB<br>
compr : -0.28 dB<br>
mixlevel : 105 dB<br>
roomtyp : Small<br>
dialnorm_Average : -27 dB<br>
dialnorm_Minimum : -27 dB<br>
dialnorm_Maximum : -27 dB<br>
<br>
Audio #26<br>
ID : 27<br>
Format : E-AC-3<br>
Format/Info : Enhanced AC-3<br>
Commercial name : Dolby Digital Plus<br>
Codec ID : A_EAC3<br>
Duration : 1 h 58 min<br>
Bit rate mode : Constant<br>
Bit rate : 256 kb/s<br>
Channel(s) : 6 channels<br>
Channel layout : L R C LFE Ls Rs<br>
Sampling rate : 48.0 kHz<br>
Frame rate : 31.250 FPS (1536 SPF)<br>
Compression mode : Lossy<br>
Stream size : 217 MiB (2%)<br>
Language : Turkish<br>
Service kind : Complete Main<br>
Default : No<br>
Forced : No<br>
Dialog Normalization : -27 dB<br>
compr : -0.28 dB<br>
mixlevel : 105 dB<br>
roomtyp : Small<br>
dialnorm_Average : -27 dB<br>
dialnorm_Minimum : -27 dB<br>
dialnorm_Maximum : -27 dB<br>
<br>
Audio #27<br>
ID : 28<br>
Format : E-AC-3<br>
Format/Info : Enhanced AC-3<br>
Commercial name : Dolby Digital Plus<br>
Codec ID : A_EAC3<br>
Duration : 1 h 58 min<br>
Bit rate mode : Constant<br>
Bit rate : 256 kb/s<br>
Channel(s) : 6 channels<br>
Channel layout : L R C LFE Ls Rs<br>
Sampling rate : 48.0 kHz<br>
Frame rate : 31.250 FPS (1536 SPF)<br>
Compression mode : Lossy<br>
Stream size : 217 MiB (2%)<br>
Title : Cantonese<br>
Language : Chinese<br>
Service kind : Complete Main<br>
Default : No<br>
Forced : No<br>
Dialog Normalization : -27 dB<br>
compr : -0.28 dB<br>
mixlevel : 105 dB<br>
roomtyp : Small<br>
dialnorm_Average : -27 dB<br>
dialnorm_Minimum : -27 dB<br>
dialnorm_Maximum : -27 dB<br>
<br>
Text #1<br>
ID : 29<br>
Format : UTF-8<br>
Codec ID : S_TEXT/UTF8<br>
Codec ID/Info : UTF-8 Plain Text<br>
Duration : 1 h 48 min<br>
Bit rate : 86 b/s<br>
Frame rate : 0.322 FPS<br>
Count of elements : 2097<br>
Stream size : 68.7 KiB (0%)<br>
Title : SDH<br>
Language : English<br>
Default : No<br>
Forced : No<br>
<br>
Text #2<br>
ID : 30<br>
Format : UTF-8<br>
Codec ID : S_TEXT/UTF8<br>
Codec ID/Info : UTF-8 Plain Text<br>
Duration : 1 h 46 min<br>
Bit rate : 0 b/s<br>
Frame rate : 0.001 FPS<br>
Count of elements : 8<br>
Stream size : 240 Bytes (0%)<br>
Title : Mandarin (Forced)<br>
Language : Chinese<br>
Default : No<br>
Forced : Yes<br>
<br>
Text #3<br>
ID : 31<br>
Format : UTF-8<br>
Codec ID : S_TEXT/UTF8<br>
Codec ID/Info : UTF-8 Plain Text<br>
Duration : 1 h 46 min<br>
Bit rate : 0 b/s<br>
Frame rate : 0.001 FPS<br>
Count of elements : 7<br>
Stream size : 215 Bytes (0%)<br>
Title : Forced<br>
Language : Czech<br>
Default : No<br>
Forced : Yes<br>
<br>
Text #4<br>
ID : 32<br>
Format : UTF-8<br>
Codec ID : S_TEXT/UTF8<br>
Codec ID/Info : UTF-8 Plain Text<br>
Duration : 1 h 57 min<br>
Bit rate : 59 b/s<br>
Frame rate : 0.240 FPS<br>
Count of elements : 1692<br>
Stream size : 51.5 KiB (0%)<br>
Language : Czech<br>
Default : No<br>
Forced : No<br>
<br>
Text #5<br>
ID : 33<br>
Format : UTF-8<br>
Codec ID : S_TEXT/UTF8<br>
Codec ID/Info : UTF-8 Plain Text<br>
Duration : 1 h 55 min<br>
Bit rate : 0 b/s<br>
Frame rate : 0.001 FPS<br>
Count of elements : 9<br>
Stream size : 195 Bytes (0%)<br>
Title : Forced<br>
Language : Danish<br>
Default : No<br>
Forced : Yes<br>
<br>
Text #6<br>
ID : 34<br>
Format : UTF-8<br>
Codec ID : S_TEXT/UTF8<br>
Codec ID/Info : UTF-8 Plain Text<br>
Duration : 1 h 57 min<br>
Bit rate : 62 b/s<br>
Frame rate : 0.195 FPS<br>
Count of elements : 1379<br>
Stream size : 54.0 KiB (0%)<br>
Language : Danish<br>
Default : No<br>
Forced : No<br>
<br>
Text #7<br>
ID : 35<br>
Format : UTF-8<br>
Codec ID : S_TEXT/UTF8<br>
Codec ID/Info : UTF-8 Plain Text<br>
Duration : 1 h 46 min<br>
Bit rate : 0 b/s<br>
Frame rate : 0.001 FPS<br>
Count of elements : 6<br>
Stream size : 131 Bytes (0%)<br>
Title : Forced<br>
Language : German<br>
Default : No<br>
Forced : Yes<br>
<br>
Text #8<br>
ID : 36<br>
Format : UTF-8<br>
Codec ID : S_TEXT/UTF8<br>
Codec ID/Info : UTF-8 Plain Text<br>
Duration : 1 h 57 min<br>
Bit rate : 67 b/s<br>
Frame rate : 0.216 FPS<br>
Count of elements : 1525<br>
Stream size : 57.9 KiB (0%)<br>
Language : German<br>
Default : No<br>
Forced : No<br>
<br>
Text #9<br>
ID : 37<br>
Format : UTF-8<br>
Codec ID : S_TEXT/UTF8<br>
Codec ID/Info : UTF-8 Plain Text<br>
Duration : 1 h 46 min<br>
Bit rate : 0 b/s<br>
Frame rate : 0.001 FPS<br>
Count of elements : 8<br>
Stream size : 356 Bytes (0%)<br>
Title : Forced<br>
Language : Greek<br>
Default : No<br>
Forced : Yes<br>
<br>
Text #10<br>
ID : 38<br>
Format : UTF-8<br>
Codec ID : S_TEXT/UTF8<br>
Codec ID/Info : UTF-8 Plain Text<br>
Duration : 1 h 57 min<br>
Bit rate : 109 b/s<br>
Frame rate : 0.241 FPS<br>
Count of elements : 1699<br>
Stream size : 94.8 KiB (0%)<br>
Language : Greek<br>
Default : No<br>
Forced : No<br>
<br>
Text #11<br>
ID : 39<br>
Format : UTF-8<br>
Codec ID : S_TEXT/UTF8<br>
Codec ID/Info : UTF-8 Plain Text<br>
Duration : 1 h 55 min<br>
Bit rate : 0 b/s<br>
Frame rate : 0.001 FPS<br>
Count of elements : 10<br>
Stream size : 268 Bytes (0%)<br>
Title : Latin American (Forced)<br>
Language : Spanish<br>
Default : No<br>
Forced : Yes<br>
<br>
Text #12<br>
ID : 40<br>
Format : UTF-8<br>
Codec ID : S_TEXT/UTF8<br>
Codec ID/Info : UTF-8 Plain Text<br>
Duration : 1 h 57 min<br>
Bit rate : 60 b/s<br>
Frame rate : 0.211 FPS<br>
Count of elements : 1491<br>
Stream size : 52.1 KiB (0%)<br>
Title : Latin American<br>
Language : Spanish<br>
Default : No<br>
Forced : No<br>
<br>
Text #13<br>
ID : 41<br>
Format : UTF-8<br>
Codec ID : S_TEXT/UTF8<br>
Codec ID/Info : UTF-8 Plain Text<br>
Duration : 1 h 46 min<br>
Bit rate : 0 b/s<br>
Frame rate : 0.001 FPS<br>
Count of elements : 4<br>
Stream size : 107 Bytes (0%)<br>
Title : European (Forced)<br>
Language : Spanish<br>
Default : No<br>
Forced : Yes<br>
<br>
Text #14<br>
ID : 42<br>
Format : UTF-8<br>
Codec ID : S_TEXT/UTF8<br>
Codec ID/Info : UTF-8 Plain Text<br>
Duration : 1 h 57 min<br>
Bit rate : 59 b/s<br>
Frame rate : 0.237 FPS<br>
Count of elements : 1675<br>
Stream size : 51.2 KiB (0%)<br>
Title : European<br>
Language : Spanish<br>
Default : No<br>
Forced : No<br>
<br>
Text #15<br>
ID : 43<br>
Format : UTF-8<br>
Codec ID : S_TEXT/UTF8<br>
Codec ID/Info : UTF-8 Plain Text<br>
Duration : 1 h 54 min<br>
Bit rate : 0 b/s<br>
Frame rate : 0.001 FPS<br>
Count of elements : 8<br>
Stream size : 162 Bytes (0%)<br>
Title : Forced<br>
Language : Finnish<br>
Default : No<br>
Forced : Yes<br>
<br>
Text #16<br>
ID : 44<br>
Format : UTF-8<br>
Codec ID : S_TEXT/UTF8<br>
Codec ID/Info : UTF-8 Plain Text<br>
Duration : 1 h 57 min<br>
Bit rate : 61 b/s<br>
Frame rate : 0.238 FPS<br>
Count of elements : 1677<br>
Stream size : 53.4 KiB (0%)<br>
Language : Finnish<br>
Default : No<br>
Forced : No<br>
<br>
Text #17<br>
ID : 45<br>
Format : UTF-8<br>
Codec ID : S_TEXT/UTF8<br>
Codec ID/Info : UTF-8 Plain Text<br>
Duration : 1 h 46 min<br>
Bit rate : 0 b/s<br>
Frame rate : 0.001 FPS<br>
Count of elements : 4<br>
Stream size : 76.0 Bytes (0%)<br>
Title : Canadian (Forced)<br>
Language : French<br>
Default : No<br>
Forced : Yes<br>
<br>
Text #18<br>
ID : 46<br>
Format : UTF-8<br>
Codec ID : S_TEXT/UTF8<br>
Codec ID/Info : UTF-8 Plain Text<br>
Duration : 1 h 57 min<br>
Bit rate : 71 b/s<br>
Frame rate : 0.241 FPS<br>
Count of elements : 1698<br>
Stream size : 61.7 KiB (0%)<br>
Title : Canadian<br>
Language : French<br>
Default : No<br>
Forced : No<br>
<br>
Text #19<br>
ID : 47<br>
Format : UTF-8<br>
Codec ID : S_TEXT/UTF8<br>
Codec ID/Info : UTF-8 Plain Text<br>
Duration : 1 h 42 min<br>
Bit rate : 0 b/s<br>
Frame rate : 0.001 FPS<br>
Count of elements : 4<br>
Stream size : 77.0 Bytes (0%)<br>
Title : Forced<br>
Language : French<br>
Default : No<br>
Forced : Yes<br>
<br>
Text #20<br>
ID : 48<br>
Format : UTF-8<br>
Codec ID : S_TEXT/UTF8<br>
Codec ID/Info : UTF-8 Plain Text<br>
Duration : 1 h 57 min<br>
Bit rate : 61 b/s<br>
Frame rate : 0.239 FPS<br>
Count of elements : 1684<br>
Stream size : 52.9 KiB (0%)<br>
Language : French<br>
Default : No<br>
Forced : No<br>
<br>
Text #21<br>
ID : 49<br>
Format : UTF-8<br>
Codec ID : S_TEXT/UTF8<br>
Codec ID/Info : UTF-8 Plain Text<br>
Duration : 1 h 55 min<br>
Bit rate : 0 b/s<br>
Frame rate : 0.001 FPS<br>
Count of elements : 9<br>
Stream size : 246 Bytes (0%)<br>
Title : Forced<br>
Language : Hungarian<br>
Default : No<br>
Forced : Yes<br>
<br>
Text #22<br>
ID : 50<br>
Format : UTF-8<br>
Codec ID : S_TEXT/UTF8<br>
Codec ID/Info : UTF-8 Plain Text<br>
Duration : 1 h 57 min<br>
Bit rate : 62 b/s<br>
Frame rate : 0.237 FPS<br>
Count of elements : 1670<br>
Stream size : 53.9 KiB (0%)<br>
Language : Hungarian<br>
Default : No<br>
Forced : No<br>
<br>
Text #23<br>
ID : 51<br>
Format : UTF-8<br>
Codec ID : S_TEXT/UTF8<br>
Codec ID/Info : UTF-8 Plain Text<br>
Duration : 1 h 48 min<br>
Bit rate : 0 b/s<br>
Frame rate : 0.001 FPS<br>
Count of elements : 8<br>
Stream size : 318 Bytes (0%)<br>
Title : Forced<br>
Language : Italian<br>
Default : No<br>
Forced : Yes<br>
<br>
Text #24<br>
ID : 52<br>
Format : UTF-8<br>
Codec ID : S_TEXT/UTF8<br>
Codec ID/Info : UTF-8 Plain Text<br>
Duration : 1 h 57 min<br>
Bit rate : 59 b/s<br>
Frame rate : 0.230 FPS<br>
Count of elements : 1626<br>
Stream size : 51.7 KiB (0%)<br>
Language : Italian<br>
Default : No<br>
Forced : No<br>
<br>
Text #25<br>
ID : 53<br>
Format : UTF-8<br>
Codec ID : S_TEXT/UTF8<br>
Codec ID/Info : UTF-8 Plain Text<br>
Duration : 1 h 46 min<br>
Bit rate : 0 b/s<br>
Frame rate : 0.001 FPS<br>
Count of elements : 8<br>
Stream size : 256 Bytes (0%)<br>
Title : Forced<br>
Language : Japanese<br>
Default : No<br>
Forced : Yes<br>
<br>
Text #26<br>
ID : 54<br>
Format : UTF-8<br>
Codec ID : S_TEXT/UTF8<br>
Codec ID/Info : UTF-8 Plain Text<br>
Duration : 1 h 57 min<br>
Bit rate : 48 b/s<br>
Frame rate : 0.215 FPS<br>
Count of elements : 1515<br>
Stream size : 42.1 KiB (0%)<br>
Language : Japanese<br>
Default : No<br>
Forced : No<br>
<br>
Text #27<br>
ID : 55<br>
Format : UTF-8<br>
Codec ID : S_TEXT/UTF8<br>
Codec ID/Info : UTF-8 Plain Text<br>
Duration : 1 h 45 min<br>
Bit rate : 0 b/s<br>
Frame rate : 0.001 FPS<br>
Count of elements : 7<br>
Stream size : 244 Bytes (0%)<br>
Title : Forced<br>
Language : Korean<br>
Default : No<br>
Forced : Yes<br>
<br>
Text #28<br>
ID : 56<br>
Format : UTF-8<br>
Codec ID : S_TEXT/UTF8<br>
Codec ID/Info : UTF-8 Plain Text<br>
Duration : 1 h 57 min<br>
Bit rate : 66 b/s<br>
Frame rate : 0.240 FPS<br>
Count of elements : 1693<br>
Stream size : 57.1 KiB (0%)<br>
Language : Korean<br>
Default : No<br>
Forced : No<br>
<br>
Text #29<br>
ID : 57<br>
Format : UTF-8<br>
Codec ID : S_TEXT/UTF8<br>
Codec ID/Info : UTF-8 Plain Text<br>
Duration : 1 h 57 min<br>
Bit rate : 58 b/s<br>
Frame rate : 0.208 FPS<br>
Count of elements : 1468<br>
Stream size : 50.6 KiB (0%)<br>
Language : Dutch<br>
Default : No<br>
Forced : No<br>
<br>
Text #30<br>
ID : 58<br>
Format : UTF-8<br>
Codec ID : S_TEXT/UTF8<br>
Codec ID/Info : UTF-8 Plain Text<br>
Duration : 1 h 54 min<br>
Bit rate : 0 b/s<br>
Frame rate : 0.001 FPS<br>
Count of elements : 7<br>
Stream size : 167 Bytes (0%)<br>
Title : Forced<br>
Language : Dutch<br>
Default : No<br>
Forced : Yes<br>
<br>
Text #31<br>
ID : 59<br>
Format : UTF-8<br>
Codec ID : S_TEXT/UTF8<br>
Codec ID/Info : UTF-8 Plain Text<br>
Duration : 1 h 45 min<br>
Bit rate : 0 b/s<br>
Frame rate : 0.001 FPS<br>
Count of elements : 5<br>
Stream size : 137 Bytes (0%)<br>
Title : Belgian (Forced)<br>
Language : Dutch<br>
Default : No<br>
Forced : Yes<br>
<br>
Text #32<br>
ID : 60<br>
Format : UTF-8<br>
Codec ID : S_TEXT/UTF8<br>
Codec ID/Info : UTF-8 Plain Text<br>
Duration : 1 h 57 min<br>
Bit rate : 59 b/s<br>
Frame rate : 0.193 FPS<br>
Count of elements : 1364<br>
Stream size : 51.5 KiB (0%)<br>
Title : Belgian<br>
Language : Dutch<br>
Default : No<br>
Forced : No<br>
<br>
Text #33<br>
ID : 61<br>
Format : UTF-8<br>
Codec ID : S_TEXT/UTF8<br>
Codec ID/Info : UTF-8 Plain Text<br>
Duration : 1 h 46 min<br>
Bit rate : 0 b/s<br>
Frame rate : 0.001 FPS<br>
Count of elements : 7<br>
Stream size : 183 Bytes (0%)<br>
Title : Forced<br>
Language : Norwegian<br>
Default : No<br>
Forced : Yes<br>
<br>
Text #34<br>
ID : 62<br>
Format : UTF-8<br>
Codec ID : S_TEXT/UTF8<br>
Codec ID/Info : UTF-8 Plain Text<br>
Duration : 1 h 57 min<br>
Bit rate : 55 b/s<br>
Frame rate : 0.226 FPS<br>
Count of elements : 1596<br>
Stream size : 47.6 KiB (0%)<br>
Language : Norwegian<br>
Default : No<br>
Forced : No<br>
<br>
Text #35<br>
ID : 63<br>
Format : UTF-8<br>
Codec ID : S_TEXT/UTF8<br>
Codec ID/Info : UTF-8 Plain Text<br>
Duration : 1 h 55 min<br>
Bit rate : 0 b/s<br>
Frame rate : 0.001 FPS<br>
Count of elements : 9<br>
Stream size : 184 Bytes (0%)<br>
Title : Forced<br>
Language : Polish<br>
Default : No<br>
Forced : Yes<br>
<br>
Text #36<br>
ID : 64<br>
Format : UTF-8<br>
Codec ID : S_TEXT/UTF8<br>
Codec ID/Info : UTF-8 Plain Text<br>
Duration : 1 h 57 min<br>
Bit rate : 58 b/s<br>
Frame rate : 0.233 FPS<br>
Count of elements : 1643<br>
Stream size : 50.3 KiB (0%)<br>
Language : Polish<br>
Default : No<br>
Forced : No<br>
<br>
Text #37<br>
ID : 65<br>
Format : UTF-8<br>
Codec ID : S_TEXT/UTF8<br>
Codec ID/Info : UTF-8 Plain Text<br>
Duration : 1 h 57 min<br>
Bit rate : 60 b/s<br>
Frame rate : 0.240 FPS<br>
Count of elements : 1696<br>
Stream size : 52.3 KiB (0%)<br>
Title : Brazilian<br>
Language : Portuguese<br>
Default : No<br>
Forced : No<br>
<br>
Text #38<br>
ID : 66<br>
Format : UTF-8<br>
Codec ID : S_TEXT/UTF8<br>
Codec ID/Info : UTF-8 Plain Text<br>
Duration : 1 h 46 min<br>
Bit rate : 0 b/s<br>
Frame rate : 0.001 FPS<br>
Count of elements : 7<br>
Stream size : 201 Bytes (0%)<br>
Title : Brazilian (Forced)<br>
Language : Portuguese<br>
Default : No<br>
Forced : Yes<br>
<br>
Text #39<br>
ID : 67<br>
Format : UTF-8<br>
Codec ID : S_TEXT/UTF8<br>
Codec ID/Info : UTF-8 Plain Text<br>
Duration : 1 h 57 min<br>
Bit rate : 62 b/s<br>
Frame rate : 0.240 FPS<br>
Count of elements : 1695<br>
Stream size : 53.8 KiB (0%)<br>
Title : European<br>
Language : Portuguese<br>
Default : No<br>
Forced : No<br>
<br>
Text #40<br>
ID : 68<br>
Format : UTF-8<br>
Codec ID : S_TEXT/UTF8<br>
Codec ID/Info : UTF-8 Plain Text<br>
Duration : 1 h 46 min<br>
Bit rate : 0 b/s<br>
Frame rate : 0.001 FPS<br>
Count of elements : 6<br>
Stream size : 194 Bytes (0%)<br>
Title : European (Forced)<br>
Language : Portuguese<br>
Default : No<br>
Forced : Yes<br>
<br>
Text #41<br>
ID : 69<br>
Format : UTF-8<br>
Codec ID : S_TEXT/UTF8<br>
Codec ID/Info : UTF-8 Plain Text<br>
Duration : 1 h 46 min<br>
Bit rate : 0 b/s<br>
Frame rate : 0.001 FPS<br>
Count of elements : 7<br>
Stream size : 188 Bytes (0%)<br>
Title : Forced<br>
Language : Romanian<br>
Default : No<br>
Forced : Yes<br>
<br>
Text #42<br>
ID : 70<br>
Format : UTF-8<br>
Codec ID : S_TEXT/UTF8<br>
Codec ID/Info : UTF-8 Plain Text<br>
Duration : 1 h 57 min<br>
Bit rate : 58 b/s<br>
Frame rate : 0.195 FPS<br>
Count of elements : 1379<br>
Stream size : 50.0 KiB (0%)<br>
Language : Romanian<br>
Default : No<br>
Forced : No<br>
<br>
Text #43<br>
ID : 71<br>
Format : UTF-8<br>
Codec ID : S_TEXT/UTF8<br>
Codec ID/Info : UTF-8 Plain Text<br>
Duration : 1 h 46 min<br>
Bit rate : 0 b/s<br>
Frame rate : 0.001 FPS<br>
Count of elements : 8<br>
Stream size : 200 Bytes (0%)<br>
Title : Forced<br>
Language : Slovak<br>
Default : No<br>
Forced : Yes<br>
<br>
Text #44<br>
ID : 72<br>
Format : UTF-8<br>
Codec ID : S_TEXT/UTF8<br>
Codec ID/Info : UTF-8 Plain Text<br>
Duration : 1 h 57 min<br>
Bit rate : 61 b/s<br>
Frame rate : 0.240 FPS<br>
Count of elements : 1691<br>
Stream size : 53.1 KiB (0%)<br>
Language : Slovak<br>
Default : No<br>
Forced : No<br>
<br>
Text #45<br>
ID : 73<br>
Format : UTF-8<br>
Codec ID : S_TEXT/UTF8<br>
Codec ID/Info : UTF-8 Plain Text<br>
Duration : 1 h 55 min<br>
Bit rate : 0 b/s<br>
Frame rate : 0.001 FPS<br>
Count of elements : 8<br>
Stream size : 195 Bytes (0%)<br>
Title : Forced<br>
Language : Swedish<br>
Default : No<br>
Forced : Yes<br>
<br>
Text #46<br>
ID : 74<br>
Format : UTF-8<br>
Codec ID : S_TEXT/UTF8<br>
Codec ID/Info : UTF-8 Plain Text<br>
Duration : 1 h 57 min<br>
Bit rate : 65 b/s<br>
Frame rate : 0.221 FPS<br>
Count of elements : 1562<br>
Stream size : 56.4 KiB (0%)<br>
Language : Swedish<br>
Default : No<br>
Forced : No<br>
<br>
Text #47<br>
ID : 75<br>
Format : UTF-8<br>
Codec ID : S_TEXT/UTF8<br>
Codec ID/Info : UTF-8 Plain Text<br>
Duration : 1 h 45 min<br>
Bit rate : 0 b/s<br>
Frame rate : 0.001 FPS<br>
Count of elements : 4<br>
Stream size : 140 Bytes (0%)<br>
Title : Forced<br>
Language : Turkish<br>
Default : No<br>
Forced : Yes<br>
<br>
Text #48<br>
ID : 76<br>
Format : UTF-8<br>
Codec ID : S_TEXT/UTF8<br>
Codec ID/Info : UTF-8 Plain Text<br>
Duration : 1 h 57 min<br>
Bit rate : 66 b/s<br>
Frame rate : 0.238 FPS<br>
Count of elements : 1683<br>
Stream size : 57.4 KiB (0%)<br>
Language : Turkish<br>
Default : No<br>
Forced : No<br>
<br>
Text #49<br>
ID : 77<br>
Format : UTF-8<br>
Codec ID : S_TEXT/UTF8<br>
Codec ID/Info : UTF-8 Plain Text<br>
Duration : 1 h 45 min<br>
Bit rate : 0 b/s<br>
Frame rate : 0.001 FPS<br>
Count of elements : 7<br>
Stream size : 228 Bytes (0%)<br>
Title : Cantonese (Forced)<br>
Language : Chinese<br>
Default : No<br>
Forced : Yes<br>
<br>
Text #50<br>
ID : 78<br>
Format : UTF-8<br>
Codec ID : S_TEXT/UTF8<br>
Codec ID/Info : UTF-8 Plain Text<br>
Duration : 1 h 57 min<br>
Bit rate : 55 b/s<br>
Frame rate : 0.242 FPS<br>
Count of elements : 1711<br>
Stream size : 48.0 KiB (0%)<br>
Title : Traditional, Hong Kong<br>
Language : Chinese<br>
Default : No<br>
Forced : No<br>
<br>
Text #51<br>
ID : 79<br>
Format : UTF-8<br>
Codec ID : S_TEXT/UTF8<br>
Codec ID/Info : UTF-8 Plain Text<br>
Duration : 1 h 57 min<br>
Bit rate : 58 b/s<br>
Frame rate : 0.242 FPS<br>
Count of elements : 1711<br>
Stream size : 50.1 KiB (0%)<br>
Title : Simplified<br>
Language : Chinese<br>
Default : No<br>
Forced : No<br>
<br>
Text #52<br>
ID : 80<br>
Format : UTF-8<br>
Codec ID : S_TEXT/UTF8<br>
Codec ID/Info : UTF-8 Plain Text<br>
Duration : 1 h 57 min<br>
Bit rate : 55 b/s<br>
Frame rate : 0.242 FPS<br>
Count of elements : 1709<br>
Stream size : 48.2 KiB (0%)<br>
Title : Traditional<br>
Language : Chinese<br>
Default : No<br>
Forced : No<br>
<br>
Menu<br>
00:00:00.000 : en:Scene 1<br>
00:10:12.000 : en:Scene 2<br>
00:21:21.000 : en:Scene 3<br>
00:34:59.208 : en:Scene 4<br>
00:43:57.917 : en:Scene 5<br>
00:54:25.708 : en:Scene 6<br>
01:06:15.000 : en:Scene 7<br>
01:18:35.583 : en:Scene 8<br>
01:27:56.667 : en:Scene 9<br>
01:42:54.292 : en:Scene 10<br>
01:49:14.583 : en:Credits</div>
</div><br>
<b>Screenshots</b><br>
<img src="https://i.imgur.com/bQgUnn6.png" class="bbCodeImage LbImage" alt="[​IMG]" data-url="https://i.imgur.com/bQgUnn6.png" style=""><br>
<br>
<b>Download</b><br>
<div class="bbCodeBlock bbCodeVfcHH HiddenContent">
<div class="attribution type">Hidden Content:</div>
<blockquote>You must reply before you can see the hidden data contained here.</blockquote>
</div></div>
<div class="messageTextEndMarker">&nbsp;</div>
</blockquote>
</article>]]></description>
                <author><![CDATA[Samuel]]></author>
                </item>

                </channel></rss>